<svg id="Layer_1" data-name="Layer 1" xmlns="http://www.w3.org/2000/svg" viewBox="0 0 1000 1000"><defs><style>.cls-1{fill:#232848;}</style></defs><path class="cls-1" d="M764.83,162.68a60.49,60.49,0,0,1,60.49,60.49V776.83a60.49,60.49,0,0,1-60.49,60.49H211.17a60.48,60.48,0,0,1-60.48-60.49V223.17a60.48,60.48,0,0,1,60.48-60.49H764.83m0-12H211.17a72.56,72.56,0,0,0-72.48,72.49V776.83a72.56,72.56,0,0,0,72.48,72.49H764.83a72.57,72.57,0,0,0,72.49-72.49V223.17a72.57,72.57,0,0,0-72.49-72.49Z"/><path class="cls-1" d="M282.56,222.32A38.65,38.65,0,0,1,321.21,261v45a38.66,38.66,0,0,1-38.65,38.66h-45A38.66,38.66,0,0,1,198.86,306V261a38.65,38.65,0,0,1,38.66-38.65h45m0-8h-45A46.71,46.71,0,0,0,190.86,261v45a46.71,46.71,0,0,0,46.66,46.66h45A46.71,46.71,0,0,0,329.21,306V261a46.71,46.71,0,0,0-46.65-46.65Z"/><path class="cls-1" d="M432.59,222.32A38.65,38.65,0,0,1,471.25,261v45a38.66,38.66,0,0,1-38.66,38.66h-45A38.66,38.66,0,0,1,348.9,306V261a38.65,38.65,0,0,1,38.66-38.65h45m0-8h-45A46.71,46.71,0,0,0,340.9,261v45a46.71,46.71,0,0,0,46.66,46.66h45A46.71,46.71,0,0,0,479.25,306V261a46.71,46.71,0,0,0-46.66-46.65Z"/><path class="cls-1" d="M583.81,222.32A38.64,38.64,0,0,1,622.46,261v45a38.65,38.65,0,0,1-38.65,38.66h-45A38.66,38.66,0,0,1,500.11,306V261a38.65,38.65,0,0,1,38.66-38.65h45m0-8h-45A46.71,46.71,0,0,0,492.11,261v45a46.71,46.71,0,0,0,46.66,46.66h45A46.71,46.71,0,0,0,630.46,306V261a46.71,46.71,0,0,0-46.65-46.65Z"/><path class="cls-1" d="M738.49,222.32A38.64,38.64,0,0,1,777.14,261v45a38.65,38.65,0,0,1-38.65,38.66h-45A38.66,38.66,0,0,1,654.79,306V261a38.65,38.65,0,0,1,38.66-38.65h45m0-8h-45A46.71,46.71,0,0,0,646.79,261v45a46.71,46.71,0,0,0,46.66,46.66h45A46.71,46.71,0,0,0,785.14,306V261a46.71,46.71,0,0,0-46.65-46.65Z"/><path class="cls-1" d="M282.56,366.66a38.65,38.65,0,0,1,38.65,38.65v45A38.66,38.66,0,0,1,282.56,489h-45a38.66,38.66,0,0,1-38.66-38.66v-45a38.65,38.65,0,0,1,38.66-38.65h45m0-8h-45a46.71,46.71,0,0,0-46.66,46.65v45A46.71,46.71,0,0,0,237.52,497h45a46.71,46.71,0,0,0,46.65-46.66v-45a46.71,46.71,0,0,0-46.65-46.65Z"/><path class="cls-1" d="M432.59,366.66a38.65,38.65,0,0,1,38.66,38.65v45A38.66,38.66,0,0,1,432.59,489h-45a38.66,38.66,0,0,1-38.66-38.66v-45a38.65,38.65,0,0,1,38.66-38.65h45m0-8h-45a46.71,46.71,0,0,0-46.66,46.65v45A46.71,46.71,0,0,0,387.56,497h45a46.71,46.71,0,0,0,46.66-46.66v-45a46.71,46.71,0,0,0-46.66-46.65Z"/><path class="cls-1" d="M583.81,366.66a38.64,38.64,0,0,1,38.65,38.65v45A38.65,38.65,0,0,1,583.81,489h-45a38.66,38.66,0,0,1-38.66-38.66v-45a38.65,38.65,0,0,1,38.66-38.65h45m0-8h-45a46.71,46.71,0,0,0-46.66,46.65v45A46.71,46.71,0,0,0,538.77,497h45a46.71,46.71,0,0,0,46.65-46.66v-45a46.71,46.71,0,0,0-46.65-46.65Z"/><path class="cls-1" d="M738.49,366.66a38.64,38.64,0,0,1,38.65,38.65v45A38.65,38.65,0,0,1,738.49,489h-45a38.66,38.66,0,0,1-38.66-38.66v-45a38.65,38.65,0,0,1,38.66-38.65h45m0-8h-45a46.71,46.71,0,0,0-46.66,46.65v45A46.71,46.71,0,0,0,693.45,497h45a46.71,46.71,0,0,0,46.65-46.66v-45a46.71,46.71,0,0,0-46.65-46.65Z"/><path class="cls-1" d="M282.56,511a38.66,38.66,0,0,1,38.65,38.66v45a38.65,38.65,0,0,1-38.65,38.65h-45a38.65,38.65,0,0,1-38.66-38.65v-45A38.66,38.66,0,0,1,237.52,511h45m0-8h-45a46.71,46.71,0,0,0-46.66,46.66v45a46.71,46.71,0,0,0,46.66,46.65h45a46.71,46.71,0,0,0,46.65-46.65v-45A46.71,46.71,0,0,0,282.56,503Z"/><path class="cls-1" d="M432.59,511a38.66,38.66,0,0,1,38.66,38.66v45a38.65,38.65,0,0,1-38.66,38.65h-45a38.65,38.65,0,0,1-38.66-38.65v-45A38.66,38.66,0,0,1,387.56,511h45m0-8h-45a46.71,46.71,0,0,0-46.66,46.66v45a46.71,46.71,0,0,0,46.66,46.65h45a46.71,46.71,0,0,0,46.66-46.65v-45A46.71,46.71,0,0,0,432.59,503Z"/><path class="cls-1" d="M583.81,511a38.65,38.65,0,0,1,38.65,38.66v45a38.64,38.64,0,0,1-38.65,38.65h-45a38.65,38.65,0,0,1-38.66-38.65v-45A38.66,38.66,0,0,1,538.77,511h45m0-8h-45a46.71,46.71,0,0,0-46.66,46.66v45a46.71,46.71,0,0,0,46.66,46.65h45a46.71,46.71,0,0,0,46.65-46.65v-45A46.71,46.71,0,0,0,583.81,503Z"/><path class="cls-1" d="M738.49,511a38.65,38.65,0,0,1,38.65,38.66v45a38.64,38.64,0,0,1-38.65,38.65h-45a38.65,38.65,0,0,1-38.66-38.65v-45A38.66,38.66,0,0,1,693.45,511h45m0-8h-45a46.71,46.71,0,0,0-46.66,46.66v45a46.71,46.71,0,0,0,46.66,46.65h45a46.71,46.71,0,0,0,46.65-46.65v-45A46.71,46.71,0,0,0,738.49,503Z"/><path class="cls-1" d="M282.56,655.33A38.66,38.66,0,0,1,321.21,694v45a38.65,38.65,0,0,1-38.65,38.65h-45A38.65,38.65,0,0,1,198.86,739V694a38.66,38.66,0,0,1,38.66-38.66h45m0-8h-45A46.71,46.71,0,0,0,190.86,694v45a46.71,46.71,0,0,0,46.66,46.65h45A46.71,46.71,0,0,0,329.21,739V694a46.71,46.71,0,0,0-46.65-46.66Z"/><path class="cls-1" d="M432.59,655.33A38.66,38.66,0,0,1,471.25,694v45a38.65,38.65,0,0,1-38.66,38.65h-45A38.65,38.65,0,0,1,348.9,739V694a38.66,38.66,0,0,1,38.66-38.66h45m0-8h-45A46.71,46.71,0,0,0,340.9,694v45a46.71,46.71,0,0,0,46.66,46.65h45A46.71,46.71,0,0,0,479.25,739V694a46.71,46.71,0,0,0-46.66-46.66Z"/><path class="cls-1" d="M583.81,655.33A38.65,38.65,0,0,1,622.46,694v45a38.64,38.64,0,0,1-38.65,38.65h-45A38.65,38.65,0,0,1,500.11,739V694a38.66,38.66,0,0,1,38.66-38.66h45m0-8h-45A46.71,46.71,0,0,0,492.11,694v45a46.71,46.71,0,0,0,46.66,46.65h45A46.71,46.71,0,0,0,630.46,739V694a46.71,46.71,0,0,0-46.65-46.66Z"/><path class="cls-1" d="M738.49,655.33A38.65,38.65,0,0,1,777.14,694v45a38.64,38.64,0,0,1-38.65,38.65h-45A38.65,38.65,0,0,1,654.79,739V694a38.66,38.66,0,0,1,38.66-38.66h45m0-8h-45A46.71,46.71,0,0,0,646.79,694v45a46.71,46.71,0,0,0,46.66,46.65h45A46.71,46.71,0,0,0,785.14,739V694a46.71,46.71,0,0,0-46.65-46.66Z"/></svg>