<svg id="Layer_1" data-name="Layer 1" xmlns="http://www.w3.org/2000/svg" viewBox="0 0 1000 1000"><defs><style>.cls-1{fill:#fff;}.cls-2,.cls-3{fill:none;stroke:#fff;stroke-linecap:round;stroke-miterlimit:10;}.cls-2{stroke-width:3.87px;}.cls-3{stroke-width:4.22px;}</style></defs><rect x="80.57" y="403.07" width="193.85" height="193.85" rx="38.04"/><path class="cls-1" d="M150.69,470.93a8.11,8.11,0,1,1,16.22,0v51.51h30a7.37,7.37,0,1,1,0,14.74H158.8a8,8,0,0,1-8.11-8.11Z"/><path class="cls-2" d="M157.67,415.34s-24.76-.09-33,0c-10.81.13-30.56.73-30.56,30.85v38.17"/><circle class="cls-1" cx="164.53" cy="415.3" r="1.9"/><rect x="284.28" y="403.07" width="193.85" height="193.85" rx="38.04"/><path class="cls-1" d="M342,500.21V500c0-21,16.54-38.13,39.29-38.13s39.07,17,39.07,37.92V500c0,21-16.53,38.13-39.28,38.13S342,521.17,342,500.21Zm61.4,0V500c0-12.64-9.26-23.17-22.32-23.17S359,487.15,359,499.79V500c0,12.64,9.27,23.17,22.33,23.17S403.43,512.85,403.43,500.21Z"/><rect x="488" y="403.07" width="193.85" height="193.85" rx="38.04"/><path class="cls-1" d="M554.12,470.61a8.11,8.11,0,0,1,16.22,0v24.76l29.91-29.71c2-2,4-3.16,6.85-3.16a7.31,7.31,0,0,1,7.48,7.48,8.12,8.12,0,0,1-3,6.11l-20.75,19.38,22.65,28.44a8.64,8.64,0,0,1,2.21,5.69c0,4.53-3.48,7.9-8.22,7.9-3.16,0-5-1.58-6.84-3.9L579.61,506l-9.27,8.64v14.75a8.11,8.11,0,0,1-16.22,0Z"/><rect x="691.72" y="403.07" width="193.85" height="193.85" rx="38.04"/><path class="cls-1" d="M780.54,470.61a8.11,8.11,0,0,1,16.22,0v58.78a8.11,8.11,0,0,1-16.22,0Z"/><path class="cls-3" d="M803.44,584.23s27,.11,36,0c11.78-.14,33.33-.79,33.33-33.64V509"/><circle class="cls-1" cx="795.96" cy="584.28" r="2.08"/></svg>