<svg id="Layer_1" data-name="Layer 1" xmlns="http://www.w3.org/2000/svg" viewBox="0 0 1000 1000"><defs><style>.cls-1{fill:#fff;}.cls-2,.cls-3{fill:none;stroke:#fff;stroke-linecap:round;stroke-miterlimit:10;}.cls-2{stroke-width:6.28px;}.cls-3{stroke-width:6.85px;}</style></defs><rect x="89.38" y="83.48" width="314.84" height="314.84" rx="61.79"/><path class="cls-1" d="M203.26,193.69a13.18,13.18,0,0,1,26.35,0v83.65h48.75a12,12,0,1,1,0,24H216.44a13.08,13.08,0,0,1-13.18-13.17Z"/><path class="cls-2" d="M214.61,103.41s-40.22-.16-53.62,0c-17.55.21-49.63,1.18-49.63,50.1v62"/><circle class="cls-1" cx="225.75" cy="103.34" r="3.09"/><rect x="420.24" y="83.48" width="314.84" height="314.84" rx="61.79"/><path class="cls-1" d="M514,241.25v-.35c0-34,26.86-61.92,63.81-61.92s63.46,27.54,63.46,61.58v.34c0,34-26.86,61.93-63.81,61.93S514,275.29,514,241.25Zm99.73,0v-.35c0-20.52-15-37.63-36.27-37.63S541.57,220,541.57,240.56v.34c0,20.53,15,37.64,36.27,37.64S613.76,261.77,613.76,241.25Z"/><rect x="166.47" y="411.38" width="314.84" height="314.84" rx="61.79"/><path class="cls-1" d="M273.86,521.07a13.17,13.17,0,0,1,26.34,0v40.2L348.78,513c3.25-3.25,6.5-5.13,11.12-5.13a11.87,11.87,0,0,1,12.15,12.15c0,4.1-1.88,7.18-4.79,9.92l-33.7,31.47,36.78,46.19a14,14,0,0,1,3.59,9.24c0,7.36-5.64,12.83-13.34,12.83-5.13,0-8.21-2.57-11.12-6.33l-34.21-44.82-15.06,14v23.95a13.17,13.17,0,0,1-26.34,0Z"/><rect x="497.34" y="411.38" width="314.84" height="314.84" rx="61.79"/><path class="cls-1" d="M641.59,521.07a13.17,13.17,0,0,1,26.34,0v95.46a13.17,13.17,0,0,1-26.34,0Z"/><path class="cls-3" d="M678.78,705.6s43.86.17,58.48,0c19.13-.23,54.12-1.28,54.12-54.63v-67.6"/><circle class="cls-1" cx="666.63" cy="705.68" r="3.37"/></svg>