<svg id="Layer_1" data-name="Layer 1" xmlns="http://www.w3.org/2000/svg" viewBox="0 0 1000 1000"><defs><style>.cls-1{fill:#232848;}.cls-2{fill:#fff;}</style></defs><circle class="cls-1" cx="585.15" cy="296.2" r="70.35"/><path class="cls-1" d="M685.11,663.48v-234A40.23,40.23,0,0,0,645,389.33H525.3a40.22,40.22,0,0,0-40.1,40.11v234Z"/><circle class="cls-1" cx="414.85" cy="296.2" r="70.35"/><path class="cls-1" d="M514.8,663.48v-234a40.22,40.22,0,0,0-40.1-40.11H355a40.23,40.23,0,0,0-40.11,40.11v234Z"/><circle class="cls-1" cx="500" cy="327.1" r="77.85" transform="translate(42.05 710.86) rotate(-73.15)"/><path class="cls-2" d="M500,256.75a70.35,70.35,0,1,1-70.35,70.35A70.35,70.35,0,0,1,500,256.75m0-15a85.35,85.35,0,1,0,85.35,85.35A85.45,85.45,0,0,0,500,241.75Z"/><path class="cls-1" d="M392.54,701.88V460.34a47.67,47.67,0,0,1,47.61-47.61h119.7a47.67,47.67,0,0,1,47.61,47.61V701.88Z"/><path class="cls-2" d="M559.85,420.23A40.23,40.23,0,0,1,600,460.34v234H400v-234a40.23,40.23,0,0,1,40.11-40.11h119.7m0-15H440.15A55.18,55.18,0,0,0,385,460.34v249H615v-249a55.18,55.18,0,0,0-55.11-55.11Z"/></svg>